# xmcd
#
# Track frame offsets:
#	182
#	11177
#	23917
#	34865
#	44882
#	57182
#	70240
#	83830
#	97435
#	111252
#	124427
#	138862
#	150440
#	161917
#	173230
#	185167
#	199575
#	214470
#	226512
#	238912
#	252520
#	264440
#
# Disc length: 3688 seconds
#
# Revision: 4
# Processed by: cddbd v1.5.2PL0 Copyright (c) Steve Scherf et al.
# Submitted via: audiograbber 1.83.01
#
DISCID=4c0e6616
DTITLE=Various Artist - Time-Life - Rhythm and Blues - 1954
DYEAR=1954
DGENRE=Oldies
TTITLE0=Chords - Sh-Boom
TTITLE1=Midnighters - Work With Me Annie
TTITLE2=Drifters - Honey Love
TTITLE3=Crows - Gee
TTITLE4=Clovers - Lovey Dovey
TTITLE5=Ruth Brown - Oh What A Dream
TTITLE6=Joe Turner - Shake, Rattle And Roll
TTITLE7=Guitar Slim - The Things That I Used To Do
TTITLE8=Little Walter - You're So Fine
TTITLE9=Chuck Willis - I Feel So Bad
TTITLE10=Dinah Washington - I Don't Hurt Anymore
TTITLE11=Charms - Hearts Of Stone
TTITLE12=Midnighters - Sexy Ways
TTITLE13=Drifters - Such A Night
TTITLE14=Fats Domino - Something's Wrong
TTITLE15=Moonglows - Sincerely
TTITLE16=Roy Hamilton - You'll Never Walk Alone
TTITLE17=Joe Turner - Honey Hush
TTITLE18=Spiders - I Didn't Want To Do It
TTITLE19=Faye Adams - Hurts Me To My Heart
TTITLE20=Johnny Ace - Saving My Love For You
TTITLE21=Spaniels - Goodnite, Sweetheart, Goodnite
EXTD=
EXTT0=The Chords
EXTT1=The Midnighters
EXTT2=The Drifters featuring Clyde McPhatter
EXTT3=The Crows
EXTT4=The Clovers
EXTT5=Ruth Brown
EXTT6=Joe Turner
EXTT7=Guitar Slim
EXTT8=Little Walter and His Jukes
EXTT9=Chuck Willis
EXTT10=Dinah Washington
EXTT11=The Charms
EXTT12=The Midnighters
EXTT13=Clyde McPhatter and The Drifters
EXTT14=Fats Domino
EXTT15=The Moonglows
EXTT16=Roy Hamilton
EXTT17=Joe Turner
EXTT18=The Spiders
EXTT19=Faye Adams
EXTT20=Johnny Ace
EXTT21=The Spaniels
PLAYORDER=
